{"asset":{"generator":"3D Builder","version":"2.0"},"scene":0,"scenes":[{"nodes":[0,1]}],"nodes":[{"mesh":0,"matrix":[2.191502571105957,0,0,0,0,-1.1920928244535389E-7,-0.99999982118606567,0,0,0.99999982118606567,-1.1920928244535389E-7,0,0.0099816108122468,0.0099820196628570557,0.082997992634773254,1]},{"mesh":1,"matrix":[1,0,0,0,0,-1.1920928955078125E-7,-0.99999988079071045,0,0,0.99999988079071045,-1.1920928955078125E-7,0,0,0,0,1]}],"meshes":[{"primitives":[{"attributes":{"POSITION":0},"mode":4,"indices":1,"material":0}]},{"primitives":[{"attributes":{"POSITION":2,"COLOR_0":3},"mode":4,"indices":4}]}],"materials":[{"name":"Green","pbrMetallicRoughness":{"baseColorFactor":[0.015208514407277107,0.49693304300308228,0.072271861135959625,1],"metallicFactor":0,"roughnessFactor":1},"alphaMode":"OPAQUE"}],"accessors":[{"bufferView":0,"byteOffset":0,"count":12,"componentType":5126,"type":"VEC3","min":[0,0.080716907978057861,0],"max":[0.039998002350330353,0.082998007535934448,0.039998002350330353]},{"bufferView":1,"byteOffset":0,"count":60,"componentType":5125,"type":"SCALAR"},{"bufferView":2,"byteOffset":0,"count":135,"componentType":5126,"type":"VEC3","min":[-9.46223724374029E-11,-0.0022810979280620813,0],"max":[0.09763733297586441,-1.5911509763100185E-5,0.05998837947845459]},{"bufferView":3,"byteOffset":0,"count":135,"componentType":5121,"type":"VEC4","normalized":true},{"bufferView":4,"byteOffset":0,"count":798,"componentType":5125,"type":"SCALAR"}],"bufferViews":[{"buffer":0,"byteOffset":0,"byteLength":144,"byteStride":12,"target":34962},{"buffer":0,"byteOffset":144,"byteLength":240,"target":34963},{"buffer":0,"byteOffset":384,"byteLength":1620,"byteStride":12,"target":34962},{"buffer":0,"byteOffset":2004,"byteLength":540,"byteStride":4,"target":34962},{"buffer":0,"byteOffset":2544,"byteLength":3192,"target":34963}],"buffers":[{"byteLength":5736,"uri":"rectangulo.bin"}]}