{"asset":{"generator":"3D Builder","version":"2.0"},"scene":0,"scenes":[{"nodes":[0,1]}],"nodes":[{"mesh":0,"matrix":[1.1769399642944336,0,0,0,0,-1.4030217698746128E-7,-1.176939845085144,0,0,1.2004798650741577,-1.4310836604636279E-7,0,0.0011769399279728532,1.374399621889566E-10,0.001152929849922657,1]},{"mesh":1,"matrix":[0.57284998893737793,0,0,0,0,-6.8288919408132642E-8,-0.572848916053772,0,0,0.572848916053772,-8.9970718875065359E-8,0,0.023315031081438065,0.035728476941585541,-0.016106819733977318,1]}],"meshes":[{"primitives":[{"attributes":{"POSITION":0,"COLOR_0":1},"mode":4,"indices":2}]},{"primitives":[{"attributes":{"POSITION":3},"mode":4,"indices":4,"material":0}]}],"accessors":[{"bufferView":0,"byteOffset":0,"count":74,"componentType":5126,"type":"VEC3","min":[-0.0010000000474974513,-0.05000000074505806,0],"max":[0.049979601055383682,0.00097959698177874088,0.049980003386735916]},{"bufferView":1,"byteOffset":0,"count":74,"componentType":5121,"type":"VEC4","normalized":true},{"bufferView":2,"byteOffset":0,"count":432,"componentType":5125,"type":"SCALAR"},{"bufferView":3,"byteOffset":0,"count":240,"componentType":5126,"type":"VEC3","min":[-0.023243602365255356,-0.11540000885725021,-0.044913202524185181],"max":[0.046582803130149841,-0.045573603361845016,0.024913201108574867]},{"bufferView":4,"byteOffset":0,"count":1428,"componentType":5125,"type":"SCALAR"}],"materials":[{"name":"Turquoise","pbrMetallicRoughness":{"baseColorFactor":[0,0.3515326976776123,0.80695247650146484,1],"metallicFactor":0,"roughnessFactor":1},"alphaMode":"OPAQUE"}],"bufferViews":[{"buffer":0,"byteOffset":0,"byteLength":888,"byteStride":12,"target":34962},{"buffer":0,"byteOffset":888,"byteLength":296,"byteStride":4,"target":34962},{"buffer":0,"byteOffset":1184,"byteLength":1728,"target":34963},{"buffer":0,"byteOffset":2912,"byteLength":2880,"byteStride":12,"target":34962},{"buffer":0,"byteOffset":5792,"byteLength":5712,"target":34963}],"buffers":[{"byteLength":11504,"uri":"cilindro.bin"}]}