{"asset":{"generator":"3D Builder","version":"2.0"},"scene":0,"scenes":[{"nodes":[0,1]}],"nodes":[{"mesh":0,"matrix":[1.1769399642944336,0,0,0,0,-1.4030217698746128E-7,-1.176939845085144,0,0,1.2004798650741577,-1.4310836604636279E-7,0,0.0011769399279728532,1.374399621889566E-10,0.001152929849922657,1]},{"mesh":1,"matrix":[0.787401020526886,0,0,0,0,-9.38655162485702E-8,-0.78740090131759644,0,0,0.98425179719924927,-6.4532578392118012E-8,0,0.096309207379817963,0.00500009348616004,-0.043422970920801163,1]}],"meshes":[{"primitives":[{"attributes":{"POSITION":0,"COLOR_0":1},"mode":4,"indices":2}]},{"primitives":[{"attributes":{"POSITION":3},"mode":4,"indices":4,"material":0}]}],"accessors":[{"bufferView":0,"byteOffset":0,"count":74,"componentType":5126,"type":"VEC3","min":[-0.0010000000474974513,-0.05000000074505806,0],"max":[0.049979601055383682,0.00097959698177874088,0.049980003386735916]},{"bufferView":1,"byteOffset":0,"count":74,"componentType":5121,"type":"VEC4","normalized":true},{"bufferView":2,"byteOffset":0,"count":432,"componentType":5125,"type":"SCALAR"},{"bufferView":3,"byteOffset":0,"count":97,"componentType":5126,"type":"VEC3","min":[-0.10961300134658813,-0.118647001683712,-9.90071029605133E-8],"max":[-0.058812599629163742,-0.067847400903701782,0.0507998988032341]},{"bufferView":4,"byteOffset":0,"count":570,"componentType":5125,"type":"SCALAR"}],"materials":[{"name":"Orange","pbrMetallicRoughness":{"baseColorFactor":[1,0.21223078668117523,0.018500218167901039,1],"metallicFactor":0,"roughnessFactor":1},"alphaMode":"OPAQUE"}],"bufferViews":[{"buffer":0,"byteOffset":0,"byteLength":888,"byteStride":12,"target":34962},{"buffer":0,"byteOffset":888,"byteLength":296,"byteStride":4,"target":34962},{"buffer":0,"byteOffset":1184,"byteLength":1728,"target":34963},{"buffer":0,"byteOffset":2912,"byteLength":1164,"byteStride":12,"target":34962},{"buffer":0,"byteOffset":4076,"byteLength":2280,"target":34963}],"buffers":[{"byteLength":6356,"uri":"cono.bin"}]}