# This file uses centimeters as units for non-parametric coordinates.

mtllib gato.mtl
g default
v -3.682748 2.263974 0.001256
v -4.539407 3.120633 0.001256
v -3.682748 3.977292 0.001256
v -3.682748 3.977292 0.262996
v -3.682748 2.263974 0.262996
v -4.539407 3.120633 0.262996
vt 0.000000 0.000000
vt 1.000000 1.000000
vt 0.000000 1.000000
vt 0.000000 0.000000
vt 0.000000 1.000000
vt 1.000000 1.000000
vt 0.000000 0.000000
vt 1.000000 1.000000
vt 0.000000 1.000000
vn 0.000000 0.000000 1.000000
vn 0.000000 0.000000 1.000000
vn 0.000000 0.000000 1.000000
vn 0.000000 0.000000 -1.000000
vn 0.000000 0.000000 -1.000000
vn 0.000000 0.000000 -1.000000
vn 1.000000 0.000000 0.000000
vn 1.000000 0.000000 0.000000
vn 1.000000 0.000000 0.000000
vn 1.000000 0.000000 0.000000
vn -0.707107 0.707107 0.000000
vn -0.707107 0.707107 0.000000
vn -0.707107 0.707107 0.000000
vn -0.707107 0.707107 0.000000
vn -0.707107 -0.707107 0.000000
vn -0.707107 -0.707107 0.000000
vn -0.707107 -0.707107 0.000000
vn -0.707107 -0.707107 0.000000
s off
g polySurface49 polySurface30
usemtl lambert16SG
f 5/1/1 4/2/2 6/3/3
f 1/4/4 2/5/5 3/6/6
f 1/7/7 3/8/8 4/2/9 5/1/10
f 3/8/11 2/9/12 6/3/13 4/2/14
f 2/9/15 1/7/16 5/1/17 6/3/18
g default
v -4.210019 1.083424 0.001256
v -2.499450 1.083424 0.001256
v -2.499450 2.793993 0.001256
v -4.210019 1.083424 0.262996
v -2.499450 1.083424 0.262996
v -2.499450 2.793993 0.262996
vt 0.000000 0.000000
vt 0.000000 1.000000
vt 1.000000 1.000000
vt 0.000000 0.000000
vt 1.000000 1.000000
vt 0.000000 1.000000
vt 0.000000 0.000000
vt 0.000000 1.000000
vt 1.000000 1.000000
vn 0.000000 0.000000 1.000000
vn 0.000000 0.000000 1.000000
vn 0.000000 0.000000 1.000000
vn 0.000000 0.000000 -1.000000
vn 0.000000 0.000000 -1.000000
vn 0.000000 0.000000 -1.000000
vn 0.000000 -1.000000 0.000000
vn 0.000000 -1.000000 0.000000
vn 0.000000 -1.000000 0.000000
vn 0.000000 -1.000000 0.000000
vn 1.000000 -0.000000 0.000000
vn 1.000000 -0.000000 0.000000
vn 1.000000 -0.000000 0.000000
vn 1.000000 -0.000000 0.000000
vn -0.707107 0.707107 0.000000
vn -0.707107 0.707107 0.000000
vn -0.707107 0.707107 0.000000
vn -0.707107 0.707107 0.000000
s off
g polySurface30 polySurface51
usemtl lambert17SG
f 10/10/19 11/11/20 12/12/21
f 7/13/22 9/14/23 8/15/24
f 7/16/25 8/17/26 11/11/27 10/10/28
f 8/17/29 9/18/30 12/12/31 11/11/32
f 9/18/33 7/16/34 10/10/35 12/12/36
g default
v -4.904964 0.841194 0.000000
v -4.539407 3.120633 0.000000
v -4.289370 4.583913 0.000000
v -4.289371 4.583914 0.000000
v -4.289370 4.583914 0.000000
v -4.289370 5.797158 0.000000
v -3.682748 5.190536 0.000000
v -3.076126 5.797158 0.000000
v -3.076126 5.343431 0.000000
v -0.377180 6.023685 0.000000
v -4.904964 6.023685 0.000000
v -3.682748 3.977292 -0.000000
v -0.377180 0.841194 0.000000
v -3.076126 4.583914 0.000000
v -2.499450 2.793993 -0.000000
v -2.499450 1.083424 0.000000
v -1.905719 1.690173 0.000000
v -0.707808 1.690173 0.000000
v -1.296399 1.083424 0.000000
v -4.210019 1.083424 0.000000
v -3.682748 1.610695 0.000000
v -3.682748 2.263974 -0.000000
v -4.904964 6.023685 0.262996
v -4.289370 5.797158 0.262996
v -3.076126 5.797158 0.262996
v -0.377180 6.023685 0.262996
v -4.539407 3.120633 0.262996
v -4.289370 4.583913 0.262996
v -3.682748 3.977292 0.262996
v -0.707808 1.690173 0.262996
v -2.499450 2.793993 0.262996
v -2.499450 1.083424 0.262996
v -1.905719 1.690173 0.262996
v -4.904964 0.841194 0.262996
v -3.682748 1.610695 0.262996
v -3.682748 2.263974 0.262996
v -4.289371 4.583914 0.262996
v -4.289370 4.583914 0.262996
v -3.076126 4.583914 0.262996
v -3.076126 5.343431 0.262996
v -0.377180 0.841194 0.262996
v -1.296399 1.083424 0.262996
v -4.210019 1.083424 0.262996
v -3.682748 5.190536 0.262996
vt 0.000000 0.000000
vt 0.082153 0.440038
vt 0.135959 0.722185
vt 0.135959 0.722186
vt 0.135959 0.722186
vt 0.135959 0.956290
vt 0.269937 0.839238
vt 0.403915 0.956290
vt 0.403915 0.868740
vt 1.000000 1.000000
vt 0.000000 1.000000
vt 0.269937 0.605133
vt 1.000000 0.000000
vt 0.403915 0.722186
vt 0.531278 0.376807
vt 0.531278 0.046740
vt 0.662409 0.163817
vt 0.926978 0.163817
vt 0.796983 0.046740
vt 0.153485 0.046740
vt 0.269937 0.148481
vt 0.269937 0.254564
vt 0.000000 1.000000
vt 0.135959 0.956290
vt 0.403915 0.956290
vt 1.000000 1.000000
vt 0.135959 0.722185
vt 0.082153 0.440038
vt 0.269937 0.605133
vt 0.926978 0.163817
vt 0.531278 0.376807
vt 0.531278 0.046740
vt 0.662409 0.163817
vt 0.000000 0.000000
vt 0.269937 0.148481
vt 0.269937 0.254564
vt 0.135959 0.722186
vt 0.135959 0.722186
vt 0.403915 0.722186
vt 0.403915 0.868740
vt 1.000000 0.000000
vt 0.796983 0.046740
vt 0.153485 0.046740
vt 0.269937 0.839238
vt 1.000000 1.000000
vt 0.000000 1.000000
vt 0.082153 0.440038
vt 0.269937 0.605133
vt 0.135959 0.722185
vt 0.531278 0.376807
vt 0.531278 0.046740
vt 0.662409 0.163817
vt 0.926978 0.163817
vt 0.269937 0.148481
vt 0.269937 0.254564
vt 0.000000 0.000000
vt 0.135959 0.722186
vt 0.135959 0.722186
vt 0.135959 0.956290
vt 0.403915 0.722186
vt 0.403915 0.868740
vt 1.000000 0.000000
vt 0.796983 0.046740
vt 0.153485 0.046740
vt 0.269937 0.839238
vt 0.403915 0.956290
vn 0.000000 0.000000 1.000000
vn 0.000000 0.000000 1.000000
vn 0.000000 0.000000 1.000000
vn -0.000000 -0.000000 1.000000
vn 0.000000 0.000000 1.000000
vn -0.000000 0.000000 1.000000
vn 0.000000 0.000000 1.000000
vn -0.000000 0.000000 1.000000
vn -0.000000 -0.000000 1.000000
vn -0.000000 0.000000 1.000000
vn -0.000000 0.000000 1.000000
vn -0.000000 -0.000000 1.000000
vn 0.000000 -0.000000 1.000000
vn 0.000000 -0.000000 1.000000
vn 0.000000 0.000000 1.000000
vn 0.000000 0.000000 1.000000
vn 0.000000 -0.000000 1.000000
vn 0.000000 -0.000000 1.000000
vn 0.000000 -0.000000 1.000000
vn -0.000000 0.000000 1.000000
vn 0.000000 0.000000 1.000000
vn 0.000000 0.000000 1.000000
vn 0.000000 0.000000 1.000000
vn 0.000000 0.000000 1.000000
vn 0.000000 0.000000 -1.000000
vn 0.000000 0.000000 -1.000000
vn 0.000000 0.000000 -1.000000
vn 0.000000 0.000000 -1.000000
vn -0.000000 0.000000 -1.000000
vn -0.000000 0.000000 -1.000000
vn -0.000000 -0.000000 -1.000000
vn 0.000000 -0.000000 -1.000000
vn 0.000000 -0.000000 -1.000000
vn 0.000000 -0.000000 -1.000000
vn 0.000000 0.000000 -1.000000
vn -0.000000 -0.000000 -1.000000
vn -0.000000 -0.000000 -1.000000
vn -0.000000 -0.000000 -1.000000
vn 0.000000 0.000000 -1.000000
vn 0.000000 0.000000 -1.000000
vn 0.000000 0.000000 -1.000000
vn -0.000000 0.000000 -1.000000
vn -0.000000 0.000000 -1.000000
vn 0.000000 -0.000000 -1.000000
vn 0.000000 0.000000 -1.000000
vn 0.000000 0.000000 -1.000000
vn 0.000000 0.000000 -1.000000
vn 0.000000 0.000000 -1.000000
vn 0.000000 1.000000 0.000000
vn 0.000000 1.000000 0.000000
vn 0.000000 1.000000 0.000000
vn 0.000000 1.000000 0.000000
vn 0.707107 -0.707107 0.000000
vn 0.707107 -0.707107 0.000000
vn 0.707107 -0.707107 0.000000
vn 0.707107 -0.707107 0.000000
vn 0.707106 0.707107 0.000000
vn 0.707107 0.707107 0.000000
vn 0.707107 0.707107 0.000000
vn 0.707106 0.707107 0.000000
vn -1.000000 0.000000 0.000000
vn -1.000000 0.000000 0.000000
vn -1.000000 0.000000 0.000000
vn -1.000000 0.000000 0.000000
vn 0.714732 -0.699398 0.000000
vn 0.714732 -0.699398 0.000000
vn 0.714732 -0.699398 0.000000
vn 0.714732 -0.699398 0.000000
vn 0.000000 -1.000000 0.000000
vn 0.000000 -1.000000 0.000000
vn 0.000000 -1.000000 0.000000
vn 0.000000 -1.000000 0.000000
vn 1.000000 0.000000 0.000000
vn 1.000000 0.000000 0.000000
vn 1.000000 0.000000 0.000000
vn 1.000000 0.000000 0.000000
vn 0.707107 0.707107 0.000000
vn 0.707107 0.707107 0.000000
vn 0.707107 0.707107 0.000000
vn 0.707107 0.707107 0.000000
vn -1.000000 0.000000 0.000000
vn -1.000000 0.000000 0.000000
vn -1.000000 0.000000 0.000000
vn -1.000000 0.000000 0.000000
vn 0.724787 0.688972 0.000000
vn 0.724787 0.688972 0.000000
vn 0.724787 -0.688972 0.000000
vn 0.724787 -0.688972 0.000000
vn 0.724787 -0.688972 0.000000
vn 0.724787 -0.688972 0.000000
vn 1.000000 0.000000 0.000000
vn 1.000000 0.000000 0.000000
vn 1.000000 0.000000 0.000000
vn 1.000000 0.000000 0.000000
vn -0.707107 0.707107 0.000000
vn -0.707107 0.707107 0.000000
vn -0.707107 0.707107 0.000000
vn -0.707107 0.707107 0.000000
vn -0.707107 -0.707107 0.000000
vn -0.707107 -0.707107 0.000000
vn -0.707107 -0.707107 0.000000
vn -0.707107 -0.707107 0.000000
vn -1.000000 0.000000 0.000000
vn -1.000000 0.000000 0.000000
vn -1.000000 0.000000 0.000000
vn -1.000000 0.000000 0.000000
vn 1.000000 0.000000 0.000000
vn 1.000000 0.000000 0.000000
vn 1.000000 0.000000 0.000000
vn 1.000000 0.000000 0.000000
vn -0.717765 0.696285 0.000000
vn -0.717765 0.696285 0.000000
vn -0.717765 0.696285 0.000000
vn -0.717765 0.696285 0.000000
vn 0.000000 1.000000 0.000000
vn 0.000000 1.000000 0.000000
vn 0.000000 1.000000 0.000000
vn 0.000000 1.000000 0.000000
vn 0.707107 -0.707107 0.000000
vn 0.707107 -0.707107 0.000000
vn 0.707107 -0.707107 0.000000
vn 0.707107 -0.707107 0.000000
vn 0.000000 1.000000 0.000000
vn 0.000000 1.000000 0.000000
vn 0.000000 1.000000 0.000000
vn 0.000000 1.000000 0.000000
vn 0.000000 -1.000000 0.000000
vn 0.000000 -1.000000 0.000000
vn 0.000000 -1.000000 0.000000
vn 0.000000 -1.000000 0.000000
vn -0.707107 -0.707107 0.000000
vn -0.707107 -0.707107 0.000000
vn -0.707107 -0.707107 0.000000
vn -0.707107 -0.707107 0.000000
vn 0.707107 -0.707107 0.000000
vn 0.707107 -0.707107 0.000000
vn 0.707107 -0.707107 0.000000
vn 0.707107 -0.707107 0.000000
vn -1.000000 0.000000 0.000000
vn -1.000000 0.000000 0.000000
s 1
g polySurface44
usemtl lambert19SG
f 35/64/37 36/77/38 37/84/39 38/63/40
f 40/67/41 39/65/42 41/66/43
f 42/71/44 43/68/45 44/69/46 45/70/47
f 39/65/42 46/74/48 47/72/49 48/73/50
f 46/74/48 39/65/42 35/64/37
f 35/64/37 39/65/42 40/67/41 49/75/51 50/76/52 36/77/38
f 43/68/45 51/78/53 41/66/54
f 43/68/45 38/63/40 52/79/55 51/78/53
f 53/80/56 38/63/40 43/68/45 42/71/44
f 53/80/56 42/71/44 54/81/57
f 46/74/48 44/69/58 55/82/59 47/72/49
f 53/80/56 54/81/57 44/69/58 46/74/48
f 37/84/39 36/77/38 56/83/60
f 38/63/40 37/84/39 52/79/55
s 5
f 23/41/61 22/44/62 20/43/63 18/42/64
f 15/45/65 24/47/66 14/46/67
f 30/48/68 29/51/69 28/50/70 27/49/71
f 14/46/67 34/54/72 33/53/73 13/52/74
f 13/52/74 23/41/61 14/46/67
f 23/41/61 18/42/64 17/56/75 16/55/76 15/45/65 14/46/67
f 27/49/71 24/47/77 26/57/78
f 27/49/71 26/57/78 21/58/79 22/44/62
f 25/59/80 30/48/68 27/49/71 22/44/62
f 25/59/80 31/60/81 30/48/68
f 13/52/74 33/53/73 32/61/82 28/50/83
f 25/59/80 13/52/74 28/50/83 31/60/81
f 20/43/63 19/62/84 18/42/64
f 22/44/62 21/58/79 20/43/63
s off
f 22/28/85 23/29/86 35/64/87 38/63/88
f 14/20/89 24/30/90 41/66/91 39/65/92
s 9
f 24/30/93 15/21/94 40/67/95 41/66/96
s off
f 27/33/97 28/34/98 44/69/99 43/68/100
f 28/34/101 29/35/102 45/70/103 44/69/104
f 29/35/105 30/36/106 42/71/107 45/70/108
f 33/39/109 34/40/110 48/73/111 47/72/112
f 34/40/113 14/20/114 39/65/115 48/73/116
f 23/29/117 13/19/118 46/74/119 35/64/120
s 9
f 15/21/94 16/22/121 49/75/122 40/67/95
s off
f 16/22/123 17/23/124 50/76/125 49/75/126
f 17/23/127 18/24/128 36/77/129 50/76/130
f 26/32/131 24/30/132 41/66/133 51/78/134
f 24/30/135 27/33/136 43/68/137 41/66/138
s 10
f 21/27/139 26/32/140 51/78/141 52/79/142
s off
f 25/31/143 22/28/144 38/63/145 53/80/146
f 30/36/147 31/37/148 54/81/149 42/71/150
f 28/34/151 32/38/152 55/82/153 44/69/154
f 32/38/155 33/39/156 47/72/157 55/82/158
f 31/37/159 28/34/160 44/69/161 54/81/162
f 13/19/163 25/31/164 53/80/165 46/74/166
f 18/24/167 19/25/168 56/83/169 36/77/170
f 19/25/171 20/26/172 37/84/173 56/83/174
s 10
f 20/26/175 21/27/139 52/79/142 37/84/176
g default
v -3.076126 4.583914 0.001256
v -3.682748 5.190536 0.001256
v -3.076126 5.797158 0.001256
v -3.076126 5.797158 0.262996
v -3.076126 4.583914 0.262996
v -3.682748 5.190536 0.262996
vt 0.000000 0.000000
vt 1.000000 1.000000
vt 0.000000 1.000000
vt 0.000000 0.000000
vt 0.000000 1.000000
vt 1.000000 1.000000
vt 0.000000 0.000000
vt 1.000000 1.000000
vt 0.000000 1.000000
vn 0.000000 0.000000 1.000000
vn 0.000000 0.000000 1.000000
vn 0.000000 0.000000 1.000000
vn 0.000000 0.000000 -1.000000
vn 0.000000 0.000000 -1.000000
vn 0.000000 0.000000 -1.000000
vn 1.000000 0.000000 0.000000
vn 1.000000 0.000000 0.000000
vn 1.000000 0.000000 0.000000
vn 1.000000 0.000000 0.000000
vn -0.707107 0.707107 0.000000
vn -0.707107 0.707107 0.000000
vn -0.707107 0.707107 0.000000
vn -0.707107 0.707107 0.000000
vn -0.707107 -0.707107 0.000000
vn -0.707107 -0.707107 0.000000
vn -0.707107 -0.707107 0.000000
vn -0.707107 -0.707107 0.000000
s off
g polySurface30 polySurface47
usemtl lambert13SG
f 61/85/177 60/86/178 62/87/179
f 57/88/180 58/89/181 59/90/182
f 57/91/183 59/92/184 60/86/185 61/85/186
f 59/92/187 58/93/188 62/87/189 60/86/190
f 58/93/191 57/91/192 61/85/193 62/87/194
g default
v -4.289370 4.583914 0.001256
v -3.682748 5.190536 0.001256
v -4.289370 5.797158 0.001256
v -4.289370 4.583914 0.262996
v -3.682748 5.190536 0.262996
v -4.289370 5.797158 0.262996
vt 0.000000 0.000000
vt 0.000000 1.000000
vt 1.000000 1.000000
vt 0.000000 0.000000
vt 1.000000 1.000000
vt 0.000000 1.000000
vt 0.000000 0.000000
vt 0.000000 1.000000
vt 1.000000 1.000000
vn 0.000000 0.000000 1.000000
vn 0.000000 0.000000 1.000000
vn 0.000000 0.000000 1.000000
vn 0.000000 0.000000 -1.000000
vn 0.000000 0.000000 -1.000000
vn 0.000000 0.000000 -1.000000
vn 0.707107 -0.707107 0.000000
vn 0.707107 -0.707107 0.000000
vn 0.707107 -0.707107 0.000000
vn 0.707107 -0.707107 0.000000
vn 0.707107 0.707107 0.000000
vn 0.707107 0.707107 0.000000
vn 0.707107 0.707107 0.000000
vn 0.707107 0.707107 0.000000
vn -1.000000 0.000000 0.000000
vn -1.000000 0.000000 0.000000
vn -1.000000 0.000000 0.000000
vn -1.000000 0.000000 0.000000
s off
g polySurface30 polySurface48
usemtl lambert12SG
f 66/94/195 67/95/196 68/96/197
f 63/97/198 65/98/199 64/99/200
f 63/100/201 64/101/202 67/95/203 66/94/204
f 64/101/205 65/102/206 68/96/207 67/95/208
f 65/102/209 63/100/210 66/94/211 68/96/212
g default
v -3.682748 1.610695 0.001256
v -2.499450 2.793993 0.001256
v -3.682748 3.977292 0.001256
v -3.682748 1.610695 0.262996
v -2.499450 2.793993 0.262996
v -3.682748 3.977292 0.262996
vt 0.000000 0.000000
vt 0.000000 1.000000
vt 1.000000 1.000000
vt 0.000000 0.000000
vt 1.000000 1.000000
vt 0.000000 1.000000
vt 0.000000 0.000000
vt 0.000000 1.000000
vt 1.000000 1.000000
vn -0.000000 0.000000 1.000000
vn -0.000000 0.000000 1.000000
vn -0.000000 0.000000 1.000000
vn 0.000000 0.000000 -1.000000
vn 0.000000 0.000000 -1.000000
vn 0.000000 0.000000 -1.000000
vn 0.707107 -0.707107 0.000000
vn 0.707107 -0.707107 0.000000
vn 0.707107 -0.707107 0.000000
vn 0.707107 -0.707107 0.000000
vn 0.707107 0.707107 0.000000
vn 0.707107 0.707107 0.000000
vn 0.707107 0.707107 0.000000
vn 0.707107 0.707107 0.000000
vn -1.000000 0.000000 0.000000
vn -1.000000 0.000000 0.000000
vn -1.000000 0.000000 0.000000
vn -1.000000 0.000000 0.000000
s off
g polySurface30 polySurface50
usemtl lambert15SG
f 72/103/213 73/104/214 74/105/215
f 69/106/216 71/107/217 70/108/218
f 69/109/219 70/110/220 73/104/221 72/103/222
f 70/110/223 71/111/224 74/105/225 73/104/226
f 71/111/227 69/109/228 72/103/229 74/105/230
g default
v -3.682748 3.977292 0.001256
v -3.076126 4.583914 0.001256
v -4.289370 4.583914 0.001256
v -3.682748 5.190536 0.001256
v -3.682748 3.977292 0.262996
v -3.076126 4.583914 0.262996
v -3.682748 5.190536 0.262996
v -4.289370 4.583914 0.262996
vt 0.000000 0.000000
vt 1.000000 0.000000
vt 1.000000 1.000000
vt 0.000000 1.000000
vt 0.000000 0.000000
vt 0.000000 1.000000
vt 1.000000 1.000000
vt 1.000000 0.000000
vt 0.000000 0.000000
vt 1.000000 0.000000
vt 1.000000 1.000000
vt 0.000000 1.000000
vn 0.000000 0.000000 1.000000
vn 0.000000 0.000000 1.000000
vn 0.000000 0.000000 1.000000
vn 0.000000 0.000000 1.000000
vn 0.000000 0.000000 -1.000000
vn 0.000000 0.000000 -1.000000
vn 0.000000 0.000000 -1.000000
vn 0.000000 0.000000 -1.000000
vn 0.707107 -0.707107 0.000000
vn 0.707107 -0.707107 0.000000
vn 0.707107 -0.707107 0.000000
vn 0.707107 -0.707107 0.000000
vn 0.707107 0.707107 0.000000
vn 0.707107 0.707107 0.000000
vn 0.707107 0.707107 0.000000
vn 0.707107 0.707107 0.000000
vn -0.707107 0.707107 0.000000
vn -0.707107 0.707107 0.000000
vn -0.707107 0.707107 0.000000
vn -0.707107 0.707107 0.000000
vn -0.707107 -0.707107 0.000000
vn -0.707107 -0.707107 0.000000
vn -0.707107 -0.707107 0.000000
vn -0.707107 -0.707107 0.000000
s off
g polySurface30 polySurface52
usemtl lambert14SG
f 79/112/231 80/113/232 81/114/233 82/115/234
f 75/116/235 77/117/236 78/118/237 76/119/238
f 75/120/239 76/121/240 80/113/241 79/112/242
f 76/121/243 78/122/244 81/114/245 80/113/246
f 78/122/247 77/123/248 82/115/249 81/114/250
f 77/123/251 75/120/252 79/112/253 82/115/254
g default
v -2.499450 1.083424 0.001256
v -1.296399 1.083424 0.001256
v -1.905718 1.690173 0.001256
v -0.707808 1.690173 0.001256
v -2.499450 1.083424 0.262996
v -1.296399 1.083424 0.262996
v -0.707808 1.690173 0.262996
v -1.905718 1.690173 0.262996
vt 0.000000 0.000000
vt 1.000000 0.000000
vt 1.000000 1.000000
vt 0.000000 1.000000
vt 0.000000 0.000000
vt 0.000000 1.000000
vt 1.000000 1.000000
vt 1.000000 0.000000
vt 0.000000 0.000000
vt 1.000000 0.000000
vt 1.000000 1.000000
vt 0.000000 1.000000
vn 0.000000 0.000000 1.000000
vn 0.000000 0.000000 1.000000
vn 0.000000 0.000000 1.000000
vn 0.000000 0.000000 1.000000
vn 0.000000 0.000000 -1.000000
vn 0.000000 0.000000 -1.000000
vn 0.000000 0.000000 -1.000000
vn 0.000000 0.000000 -1.000000
vn 0.000000 -1.000000 0.000000
vn 0.000000 -1.000000 0.000000
vn 0.000000 -1.000000 0.000000
vn 0.000000 -1.000000 0.000000
vn 0.717765 -0.696285 0.000000
vn 0.717765 -0.696285 0.000000
vn 0.717765 -0.696285 0.000000
vn 0.717765 -0.696285 0.000000
vn 0.000000 1.000000 0.000000
vn 0.000000 1.000000 0.000000
vn 0.000000 1.000000 0.000000
vn 0.000000 1.000000 0.000000
vn -0.714732 0.699398 0.000000
vn -0.714732 0.699398 0.000000
vn -0.714732 0.699398 0.000000
vn -0.714732 0.699398 0.000000
s off
g polySurface30 polySurface46
usemtl lambert18SG
f 87/124/255 88/125/256 89/126/257 90/127/258
f 83/128/259 85/129/260 86/130/261 84/131/262
f 83/132/263 84/133/264 88/125/265 87/124/266
f 84/133/267 86/134/268 89/126/269 88/125/270
f 86/134/271 85/135/272 90/127/273 89/126/274
f 85/135/275 83/132/276 87/124/277 90/127/278
