{"asset":{"generator":"3D Builder","version":"2.0"},"scene":0,"scenes":[{"nodes":[0,1]}],"nodes":[{"mesh":0,"matrix":[1,0,0,0,0,-1.1920928955078125E-7,-0.99999988079071045,0,0,0.99999988079071045,-1.1920928955078125E-7,0,0,0,0,1]},{"mesh":1,"matrix":[2.191502571105957,0,0,0,0,-1.1920928244535389E-7,-0.99999982118606567,0,0,0.99999982118606567,-1.1920928244535389E-7,0,0.0099816108122468,0.0099820196628570557,0.082997992634773254,1]}],"meshes":[{"primitives":[{"attributes":{"POSITION":0,"COLOR_0":1},"mode":4,"indices":2}]},{"primitives":[{"attributes":{"POSITION":3},"mode":4,"indices":4,"material":0}]}],"accessors":[{"bufferView":0,"byteOffset":0,"count":135,"componentType":5126,"type":"VEC3","min":[-9.46223724374029E-11,-0.0022810979280620813,0],"max":[0.09763733297586441,-1.5911509763100185E-5,0.05998837947845459]},{"bufferView":1,"byteOffset":0,"count":135,"componentType":5121,"type":"VEC4","normalized":true},{"bufferView":2,"byteOffset":0,"count":798,"componentType":5125,"type":"SCALAR"},{"bufferView":3,"byteOffset":0,"count":30,"componentType":5126,"type":"VEC3","min":[0.0001413584832334891,0.080716900527477264,-8.9951414372624328E-11],"max":[0.039834324270486832,0.082998000085353851,0.039998006075620651]},{"bufferView":4,"byteOffset":0,"count":168,"componentType":5125,"type":"SCALAR"}],"materials":[{"name":"Green","pbrMetallicRoughness":{"baseColorFactor":[0.015208514407277107,0.49693304300308228,0.072271861135959625,1],"metallicFactor":0,"roughnessFactor":1},"alphaMode":"OPAQUE"}],"bufferViews":[{"buffer":0,"byteOffset":0,"byteLength":1620,"byteStride":12,"target":34962},{"buffer":0,"byteOffset":1620,"byteLength":540,"byteStride":4,"target":34962},{"buffer":0,"byteOffset":2160,"byteLength":3192,"target":34963},{"buffer":0,"byteOffset":5352,"byteLength":360,"byteStride":12,"target":34962},{"buffer":0,"byteOffset":5712,"byteLength":672,"target":34963}],"buffers":[{"byteLength":6384,"uri":"romboide.bin"}]}