{"asset":{"generator":"3D Builder","version":"2.0"},"scene":0,"scenes":[{"nodes":[0,1]}],"nodes":[{"mesh":0,"matrix":[1.1769411563873291,0,0,0,0,-1.4030231909600843E-7,-1.1769410371780396,0,0,1.2004798650741577,-1.4310836604636279E-7,0,0.0011769387638196349,1.3743983728886633E-10,0.0011529288021847606,1]},{"mesh":1,"matrix":[0.99999994039535522,0,0,0,0,-1.1920928244535389E-7,-0.99999982118606567,0,0,0.99999982118606567,-1.1920928244535389E-7,0,0.0099816080182790756,0.009982018731534481,0.092998012900352478,1]}],"meshes":[{"primitives":[{"attributes":{"POSITION":0,"COLOR_0":1},"mode":4,"indices":2}]},{"primitives":[{"attributes":{"POSITION":3},"mode":4,"indices":4,"material":0}]}],"accessors":[{"bufferView":0,"byteOffset":0,"count":74,"componentType":5126,"type":"VEC3","min":[-0.00099999946542084217,-0.050000011920928955,0],"max":[0.049979608505964279,0.00097959744744002819,0.049980010837316513]},{"bufferView":1,"byteOffset":0,"count":74,"componentType":5121,"type":"VEC4","normalized":true},{"bufferView":2,"byteOffset":0,"count":432,"componentType":5125,"type":"SCALAR"},{"bufferView":3,"byteOffset":0,"count":8,"componentType":5126,"type":"VEC3","min":[0,0.042998004704713821,0],"max":[0.039998002350330353,0.082998007535934448,0.039998002350330353]},{"bufferView":4,"byteOffset":0,"count":36,"componentType":5125,"type":"SCALAR"}],"materials":[{"name":"Green","pbrMetallicRoughness":{"baseColorFactor":[0.015208514407277107,0.49693304300308228,0.072271861135959625,1],"metallicFactor":0,"roughnessFactor":1},"alphaMode":"OPAQUE"}],"bufferViews":[{"buffer":0,"byteOffset":0,"byteLength":888,"byteStride":12,"target":34962},{"buffer":0,"byteOffset":888,"byteLength":296,"byteStride":4,"target":34962},{"buffer":0,"byteOffset":1184,"byteLength":1728,"target":34963},{"buffer":0,"byteOffset":2912,"byteLength":96,"byteStride":12,"target":34962},{"buffer":0,"byteOffset":3008,"byteLength":144,"target":34963}],"buffers":[{"byteLength":3152,"uri":"cubo.bin"}]}