{"asset":{"generator":"3D Builder","version":"2.0"},"scene":0,"scenes":[{"nodes":[0,1]}],"nodes":[{"mesh":0,"matrix":[1.1769399642944336,0,0,0,0,-1.4030217698746128E-7,-1.176939845085144,0,0,1.2004798650741577,-1.4310836604636279E-7,0,0.0011769399279728532,1.374399621889566E-10,0.001152929849922657,1]},{"mesh":1,"matrix":[0.99999994039535522,0,0,0,0,-1.1920928244535389E-7,-0.99999982118606567,0,0,0.99999982118606567,-1.1920928244535389E-7,0,0.0099087618291378021,0.020000005140900612,0.05025225505232811,1]}],"meshes":[{"primitives":[{"attributes":{"POSITION":0,"COLOR_0":1},"mode":4,"indices":2}]},{"primitives":[{"attributes":{"POSITION":3},"mode":4,"indices":4,"material":0}]}],"accessors":[{"bufferView":0,"byteOffset":0,"count":74,"componentType":5126,"type":"VEC3","min":[-0.0010000000474974513,-0.05000000074505806,0],"max":[0.049979601055383682,0.00097959698177874088,0.049980003386735916]},{"bufferView":1,"byteOffset":0,"count":74,"componentType":5121,"type":"VEC4","normalized":true},{"bufferView":2,"byteOffset":0,"count":432,"componentType":5125,"type":"SCALAR"},{"bufferView":3,"byteOffset":0,"count":2562,"componentType":5126,"type":"VEC3","min":[9.1197005531284958E-5,0.00025229901075363159,-0.010000000707805157],"max":[0.040091205388307571,0.040252301841974258,0.030000001192092896]},{"bufferView":4,"byteOffset":0,"count":15360,"componentType":5125,"type":"SCALAR"}],"materials":[{"name":"Green","pbrMetallicRoughness":{"baseColorFactor":[0.015208514407277107,0.49693304300308228,0.072271861135959625,1],"metallicFactor":0,"roughnessFactor":1},"alphaMode":"OPAQUE"}],"bufferViews":[{"buffer":0,"byteOffset":0,"byteLength":888,"byteStride":12,"target":34962},{"buffer":0,"byteOffset":888,"byteLength":296,"byteStride":4,"target":34962},{"buffer":0,"byteOffset":1184,"byteLength":1728,"target":34963},{"buffer":0,"byteOffset":2912,"byteLength":30744,"byteStride":12,"target":34962},{"buffer":0,"byteOffset":33656,"byteLength":61440,"target":34963}],"buffers":[{"byteLength":95096,"uri":"esfera.bin"}]}