{"asset":{"generator":"3D Builder","version":"2.0"},"scene":0,"scenes":[{"nodes":[0,1]}],"nodes":[{"mesh":0,"matrix":[1,0,0,0,0,-1.1920928955078125E-7,-0.99999988079071045,0,0,0.99999988079071045,-1.1920928955078125E-7,0,0,0,0,1]},{"mesh":1,"matrix":[1,0,0,0,0,-1.1920928955078125E-7,-0.99999988079071045,0,0,0.99999988079071045,-1.1920928955078125E-7,0,0,0,0,1]}],"meshes":[{"primitives":[{"attributes":{"POSITION":0,"COLOR_0":1},"mode":4,"indices":2}]},{"primitives":[{"attributes":{"POSITION":3},"mode":4,"indices":5,"material":0},{"attributes":{"POSITION":4},"mode":4,"indices":6,"material":0}]}],"accessors":[{"bufferView":0,"byteOffset":0,"count":77,"componentType":5126,"type":"VEC3","min":[0,-0.059999920427799225,0],"max":[0.059999920427799225,-3.2171607600162133E-9,0.0599999874830246]},{"bufferView":1,"byteOffset":0,"count":77,"componentType":5121,"type":"VEC4","normalized":true},{"bufferView":2,"byteOffset":0,"count":432,"componentType":5125,"type":"SCALAR"},{"bufferView":3,"byteOffset":0,"count":2396,"componentType":5126,"type":"VEC3","min":[0.00999995693564415,-0.050000004470348358,0.0099999997764825821],"max":[0.049999963492155075,-0.010000000707805157,0.05000000074505806]},{"bufferView":3,"byteOffset":28752,"count":136,"componentType":5126,"type":"VEC3","min":[0.010000000707805157,-0.049999963492155075,0.030000999569892883],"max":[0.029999960213899612,-0.030000008642673492,0.05000000074505806]},{"bufferView":4,"byteOffset":0,"count":13965,"componentType":5125,"type":"SCALAR"},{"bufferView":4,"byteOffset":55860,"count":405,"componentType":5125,"type":"SCALAR"}],"materials":[{"name":"Green","pbrMetallicRoughness":{"baseColorFactor":[0.015208514407277107,0.49693304300308228,0.072271861135959625,1],"metallicFactor":0,"roughnessFactor":1},"alphaMode":"OPAQUE"}],"bufferViews":[{"buffer":0,"byteOffset":0,"byteLength":924,"byteStride":12,"target":34962},{"buffer":0,"byteOffset":924,"byteLength":308,"byteStride":4,"target":34962},{"buffer":0,"byteOffset":1232,"byteLength":1728,"target":34963},{"buffer":0,"byteOffset":2960,"byteLength":30384,"byteStride":12,"target":34962},{"buffer":0,"byteOffset":33344,"byteLength":57480,"target":34963}],"buffers":[{"byteLength":90824,"uri":"esfera1.bin"}]}