{"asset":{"generator":"3D Builder","version":"2.0"},"scene":0,"scenes":[{"nodes":[0,1]}],"nodes":[{"mesh":0,"matrix":[2.1914999485015869,0,0,0,0,-1.1920928244535389E-7,-0.99999982118606567,0,0,0.99999982118606567,-1.1920928244535389E-7,0,0.0099816108122468,0.0099820196628570557,0.082997992634773254,1]},{"mesh":1,"matrix":[0.99999994039535522,0,0,0,0,-1.1920928244535389E-7,-0.99999982118606567,0,0,0.99999982118606567,-1.1920928244535389E-7,0,0,0,0,1]}],"meshes":[{"primitives":[{"attributes":{"POSITION":0},"mode":4,"indices":1,"material":0}]},{"primitives":[{"attributes":{"POSITION":2,"COLOR_0":3},"mode":4,"indices":4}]}],"materials":[{"name":"Green","pbrMetallicRoughness":{"baseColorFactor":[0.015208514407277107,0.49693304300308228,0.072271861135959625,1],"metallicFactor":0,"roughnessFactor":1},"alphaMode":"OPAQUE"}],"accessors":[{"bufferView":0,"byteOffset":0,"count":42,"componentType":5126,"type":"VEC3","min":[0.00014135800302028656,0.080716907978057861,-1.6356500875946978E-10],"max":[0.030820401385426521,0.082998007535934448,0.039998002350330353]},{"bufferView":1,"byteOffset":0,"count":240,"componentType":5125,"type":"SCALAR"},{"bufferView":2,"byteOffset":0,"count":154,"componentType":5126,"type":"VEC3","min":[-9.4622407131872421E-11,-0.0022811002563685179,0],"max":[0.086098402738571167,-1.591150248714257E-5,0.059988401830196381]},{"bufferView":3,"byteOffset":0,"count":154,"componentType":5121,"type":"VEC4","normalized":true},{"bufferView":4,"byteOffset":0,"count":912,"componentType":5125,"type":"SCALAR"}],"bufferViews":[{"buffer":0,"byteOffset":0,"byteLength":504,"byteStride":12,"target":34962},{"buffer":0,"byteOffset":504,"byteLength":960,"target":34963},{"buffer":0,"byteOffset":1464,"byteLength":1848,"byteStride":12,"target":34962},{"buffer":0,"byteOffset":3312,"byteLength":616,"byteStride":4,"target":34962},{"buffer":0,"byteOffset":3928,"byteLength":3648,"target":34963}],"buffers":[{"byteLength":7576,"uri":"trapecio.bin"}]}