{"asset":{"generator":"3D Builder","version":"2.0"},"scene":0,"scenes":[{"nodes":[0,1]}],"nodes":[{"mesh":0,"matrix":[1,0,0,0,0,-1.1920928955078125E-7,-0.99999988079071045,0,0,0.99999988079071045,-1.1920928955078125E-7,0,0,0,0,1]},{"mesh":1,"matrix":[0.57284998893737793,0,0,0,0,0.57284849882125854,0,0,0,2.1681778150650644E-8,0.02864241786301136,0,0.022206878289580345,0.077476218342781067,0.00028642098186537623,1]}],"meshes":[{"primitives":[{"attributes":{"POSITION":0,"COLOR_0":1},"mode":4,"indices":2}]},{"primitives":[{"attributes":{"POSITION":3},"mode":4,"indices":4,"material":0}]}],"accessors":[{"bufferView":0,"byteOffset":0,"count":155,"componentType":5126,"type":"VEC3","min":[-9.46223724374029E-11,-0.0022810979280620813,0],"max":[0.05594351515173912,-1.5911509763100185E-5,0.055675998330116272]},{"bufferView":1,"byteOffset":0,"count":155,"componentType":5121,"type":"VEC4","normalized":true},{"bufferView":2,"byteOffset":0,"count":918,"componentType":5125,"type":"SCALAR"},{"bufferView":3,"byteOffset":0,"count":240,"componentType":5126,"type":"VEC3","min":[-0.023243602365255356,-0.11540000885725021,-0.044913202524185181],"max":[0.046582803130149841,-0.045573603361845016,0.024913201108574867]},{"bufferView":4,"byteOffset":0,"count":1428,"componentType":5125,"type":"SCALAR"}],"materials":[{"name":"Turquoise","pbrMetallicRoughness":{"baseColorFactor":[0,0.3515326976776123,0.80695247650146484,1],"metallicFactor":0,"roughnessFactor":1},"alphaMode":"OPAQUE"}],"bufferViews":[{"buffer":0,"byteOffset":0,"byteLength":1860,"byteStride":12,"target":34962},{"buffer":0,"byteOffset":1860,"byteLength":620,"byteStride":4,"target":34962},{"buffer":0,"byteOffset":2480,"byteLength":3672,"target":34963},{"buffer":0,"byteOffset":6152,"byteLength":2880,"byteStride":12,"target":34962},{"buffer":0,"byteOffset":9032,"byteLength":5712,"target":34963}],"buffers":[{"byteLength":14744,"uri":"circulo.bin"}]}