{"asset":{"generator":"3D Builder","version":"2.0"},"scene":0,"scenes":[{"nodes":[0]}],"nodes":[{"children":[1,2]},{"mesh":0,"matrix":[0.46205493807792664,-0.70710289478302,4.9377849364873327E-8,0,1.1407700339916005E-9,-1.7457462142544955E-9,-0.049999497830867767,0,0.46205493807792664,0.70710486173629761,-9.2370555648813024E-14,0,0.00581179978325963,0.034755997359752655,0.0041498653590679169,1]},{"mesh":1,"matrix":[0.99999994039535522,0,0,0,0,-1.1920928244535389E-7,-0.99999982118606567,0,0,0.99999982118606567,-1.1920928244535389E-7,0,0,0,0,1]}],"meshes":[{"primitives":[{"attributes":{"POSITION":0},"mode":4,"indices":1,"material":0}]},{"primitives":[{"attributes":{"POSITION":2,"COLOR_0":3},"mode":4,"indices":4}]}],"materials":[{"name":"Green","pbrMetallicRoughness":{"baseColorFactor":[0.015208514407277107,0.49693304300308228,0.072271861135959625,1],"metallicFactor":0,"roughnessFactor":1},"alphaMode":"OPAQUE"}],"accessors":[{"bufferView":0,"byteOffset":0,"count":8,"componentType":5126,"type":"VEC3","min":[0,0.042998004704713821,0],"max":[0.039998002350330353,0.082998007535934448,0.039998002350330353]},{"bufferView":1,"byteOffset":0,"count":36,"componentType":5125,"type":"SCALAR"},{"bufferView":2,"byteOffset":0,"count":145,"componentType":5126,"type":"VEC3","min":[-9.4622407131872421E-11,-0.0022811002563685179,0],"max":[0.048818700015544891,-1.591150248714257E-5,0.059988401830196381]},{"bufferView":3,"byteOffset":0,"count":145,"componentType":5121,"type":"VEC4","normalized":true},{"bufferView":4,"byteOffset":0,"count":858,"componentType":5125,"type":"SCALAR"}],"bufferViews":[{"buffer":0,"byteOffset":0,"byteLength":96,"byteStride":12,"target":34962},{"buffer":0,"byteOffset":96,"byteLength":144,"target":34963},{"buffer":0,"byteOffset":240,"byteLength":1740,"byteStride":12,"target":34962},{"buffer":0,"byteOffset":1980,"byteLength":580,"byteStride":4,"target":34962},{"buffer":0,"byteOffset":2560,"byteLength":3432,"target":34963}],"buffers":[{"byteLength":5992,"uri":"rombo.bin"}]}