{"asset":{"generator":"3D Builder","version":"2.0"},"scene":0,"scenes":[{"nodes":[0,1]}],"nodes":[{"mesh":0,"matrix":[1,0,0,0,0,-1.1920928955078125E-7,-0.99999988079071045,0,0,0.99999988079071045,-1.1920928955078125E-7,0,0,0,0,1]},{"mesh":1,"matrix":[0.99999994039535522,0,0,0,0,0.99999982118606567,-4.7683707293799671E-7,0,0,5.2798050376168248E-8,0.12912443280220032,0,0.037170112133026123,0.031368758529424667,0.0002912408672273159,1]}],"meshes":[{"primitives":[{"attributes":{"POSITION":0,"COLOR_0":1},"mode":4,"indices":2}]},{"primitives":[{"attributes":{"POSITION":3},"mode":4,"indices":4,"material":0}]}],"accessors":[{"bufferView":0,"byteOffset":0,"count":152,"componentType":5126,"type":"VEC3","min":[-9.46223724374029E-11,-0.0022810979280620813,0],"max":[0.071661733090877533,-1.5911509763100185E-5,0.05998837947845459]},{"bufferView":1,"byteOffset":0,"count":152,"componentType":5121,"type":"VEC4","normalized":true},{"bufferView":2,"byteOffset":0,"count":900,"componentType":5125,"type":"SCALAR"},{"bufferView":3,"byteOffset":0,"count":12,"componentType":5126,"type":"VEC3","min":[-0.028793502599000931,-0.02500000037252903,-0.010000000707805157],"max":[0.028793502599000931,0.02500000037252903,0.005488930270075798]},{"bufferView":4,"byteOffset":0,"count":60,"componentType":5125,"type":"SCALAR"}],"materials":[{"name":"Orange","pbrMetallicRoughness":{"baseColorFactor":[1,0.21223078668117523,0.018500218167901039,1],"metallicFactor":0,"roughnessFactor":1},"alphaMode":"OPAQUE"}],"bufferViews":[{"buffer":0,"byteOffset":0,"byteLength":1824,"byteStride":12,"target":34962},{"buffer":0,"byteOffset":1824,"byteLength":608,"byteStride":4,"target":34962},{"buffer":0,"byteOffset":2432,"byteLength":3600,"target":34963},{"buffer":0,"byteOffset":6032,"byteLength":144,"byteStride":12,"target":34962},{"buffer":0,"byteOffset":6176,"byteLength":240,"target":34963}],"buffers":[{"byteLength":6416,"uri":"poligonos.bin"}]}