{"asset":{"generator":"3D Builder","version":"2.0"},"scene":0,"scenes":[{"nodes":[0,1]}],"nodes":[{"mesh":0,"matrix":[1,0,0,0,0,-1.1920928955078125E-7,-0.99999988079071045,0,0,0.99999988079071045,-1.1920928955078125E-7,0,0,0,0,1]},{"mesh":1,"matrix":[2.5001251697540283,0,0,0,0,-1.1920928244535389E-7,-0.99999982118606567,0,0,0.99999982118606567,-1.1920928244535389E-7,0,0.0090576354414224625,0.010000810027122498,0.092998012900352478,1]}],"meshes":[{"primitives":[{"attributes":{"POSITION":0,"COLOR_0":2},"mode":4,"indices":4},{"attributes":{"POSITION":1,"COLOR_0":3},"mode":4,"indices":5}]},{"primitives":[{"attributes":{"POSITION":6,"COLOR_0":7},"mode":4,"indices":8}]}],"accessors":[{"bufferView":0,"byteOffset":0,"count":139,"componentType":5126,"type":"VEC3","min":[-0.00099999946542084217,-0.059999994933605194,0],"max":[0.00097640033345669508,0.000975600560195744,0.059999600052833557]},{"bufferView":0,"byteOffset":1668,"count":32,"componentType":5126,"type":"VEC3","min":[-2.2709369940088209E-9,-0.00099999934900552034,0],"max":[0.12000000476837158,0.00099999993108212948,0.0019999989308416843]},{"bufferView":1,"byteOffset":0,"count":139,"componentType":5121,"type":"VEC4","normalized":true},{"bufferView":1,"byteOffset":556,"count":32,"componentType":5121,"type":"VEC4","normalized":true},{"bufferView":2,"byteOffset":0,"count":756,"componentType":5125,"type":"SCALAR"},{"bufferView":2,"byteOffset":3024,"count":126,"componentType":5125,"type":"SCALAR"},{"bufferView":3,"byteOffset":0,"count":8,"componentType":5126,"type":"VEC3","min":[0,0.042998004704713821,0],"max":[0.039998002350330353,0.082998007535934448,0.039998002350330353]},{"bufferView":4,"byteOffset":0,"count":8,"componentType":5121,"type":"VEC4","normalized":true},{"bufferView":5,"byteOffset":0,"count":36,"componentType":5125,"type":"SCALAR"}],"bufferViews":[{"buffer":0,"byteOffset":0,"byteLength":2052,"byteStride":12,"target":34962},{"buffer":0,"byteOffset":2052,"byteLength":684,"byteStride":4,"target":34962},{"buffer":0,"byteOffset":2736,"byteLength":3528,"target":34963},{"buffer":0,"byteOffset":6264,"byteLength":96,"byteStride":12,"target":34962},{"buffer":0,"byteOffset":6360,"byteLength":32,"byteStride":4,"target":34962},{"buffer":0,"byteOffset":6392,"byteLength":144,"target":34963}],"buffers":[{"byteLength":6536,"uri":"ortoedro.bin"}]}